# xmcd CD database file
#
# Track frame offsets:
#	150
#	15733
#	27616
#	42797
#	61530
#	75770
#	89491
#	103560
#	116239
#	141654
#	163211
#	175738
#	189465
#	214576
#	236771
#	248731
#	262882
#	278258
#
# Disc length: 3977 seconds
#
# Revision: 0
# Processed by: cddbd v1.5.1PL2 Copyright (c) Steve Scherf et al.
# Submitted via: CDex 1.51
#
DISCID=ec0f8712
DTITLE=Historia Jazzu - nr 14. Cool - west coast jazz
DYEAR=1900
DGENRE=Jazz
TTITLE0=Early autumn
TTITLE1=The Birth of cool: ISRAEL
TTITLE2=The Birth of cool: ROUGE
TTITLE3=Ain't no use
TTITLE4=Crosscurrent
TTITLE5=Yesterdays
TTITLE6=Wallington's Godchild
TTITLE7=Hershey Bar
TTITLE8=Mosquito knees
TTITLE9=When the blues come on
TTITLE10=Little duet for zoot and chet
TTITLE11=Love walked in
TTITLE12=Take five
TTITLE13=When you wish upon a star
TTITLE14=Heart and soul
TTITLE15=True blues
TTITLE16=Vendome
TTITLE17=Bangs Groove
EXTD=
EXTT0=
EXTT1=
EXTT2=
EXTT3=
EXTT4=
EXTT5=
EXTT6=
EXTT7=
EXTT8=
EXTT9=
EXTT10=
EXTT11=
EXTT12=
EXTT13=
EXTT14=
EXTT15=
EXTT16=
EXTT17=
PLAYORDER=
